<svg width="66" height="65" viewBox="0 0 66 65" fill="none" xmlns="http://www.w3.org/2000/svg">
<path d="M15.7425 38.9741H10.1325C5.90747 38.9741 2.48242 42.3992 2.48242 46.6242V57.3343C2.48242 61.5593 5.90747 64.9843 10.1325 64.9843H56.0328C60.2578 64.9843 63.6829 61.5593 63.6829 57.3343V46.6242C63.6829 42.3992 60.2578 38.9741 56.0328 38.9741H49.6578C47.2636 38.9741 45.3227 40.915 45.3227 43.3092C45.3227 45.7033 43.3819 47.6442 40.9877 47.6442H24.4126C22.0184 47.6442 20.0776 45.7033 20.0776 43.3092C20.0776 40.915 18.1367 38.9741 15.7425 38.9741Z" fill="#D4D4D8"/>
<path d="M14.7227 14.4937H51.4429" stroke="#161616" stroke-width="3.06002" stroke-miterlimit="10" stroke-linecap="round" stroke-linejoin="round"/>
<path d="M14.7227 26.7339H51.4429" stroke="#161616" stroke-width="3.06002" stroke-miterlimit="10" stroke-linecap="round" stroke-linejoin="round"/>
<path d="M2.48242 38.9741H20.8426V48.1542H45.3227V38.9741H63.6829" stroke="#161616" stroke-width="3.06002" stroke-miterlimit="10" stroke-linecap="round" stroke-linejoin="round"/>
<path d="M57.5628 2.25366H8.60247C5.22246 2.25366 2.48242 4.9937 2.48242 8.37371V57.3341C2.48242 60.7141 5.22246 63.4541 8.60247 63.4541H57.5628C60.9428 63.4541 63.6829 60.7141 63.6829 57.3341V8.37371C63.6829 4.9937 60.9428 2.25366 57.5628 2.25366Z" stroke="#161616" stroke-width="3.06002" stroke-miterlimit="10" stroke-linecap="round" stroke-linejoin="round"/>
</svg>
