<svg width="71" height="65" viewBox="0 0 71 65" fill="none" xmlns="http://www.w3.org/2000/svg">
<path d="M47.278 28.7288C46.4963 27.9306 45.5449 27.3186 44.4943 26.9385C43.4437 26.5583 42.321 26.4197 41.2094 26.5328C40.0979 26.646 39.0262 27.0081 38.0738 27.5922C37.1214 28.1764 36.3128 28.9675 35.7081 29.9069C35.1035 28.9673 34.295 28.1759 33.3426 27.5916C32.3902 27.0073 31.3184 26.6451 30.2068 26.5319C29.0952 26.4187 27.9724 26.5575 26.9217 26.9378C25.8711 27.3181 24.9197 27.9303 24.1381 28.7288C22.7279 30.1711 21.9384 32.1081 21.9384 34.1252C21.9384 36.1423 22.7279 38.0793 24.1381 39.5215L35.7081 51.2797L47.2811 39.5231C48.6902 38.0798 49.4788 36.1425 49.4782 34.1253C49.4777 32.1082 48.688 30.1713 47.278 28.7288Z" fill="#D4D4D8" stroke="#161616" stroke-width="3.06002" stroke-miterlimit="10" stroke-linecap="round" stroke-linejoin="round"/>
<path d="M63.2482 63.2141H8.16778C6.54464 63.2141 4.98798 62.5693 3.84025 61.4216C2.69252 60.2739 2.04773 58.7172 2.04773 57.0941V2.01367H26.5279L34.178 14.2538H69.3682V57.0941C69.3682 58.7172 68.7234 60.2739 67.5757 61.4216C66.428 62.5693 64.8713 63.2141 63.2482 63.2141Z" stroke="#161616" stroke-width="3.06002" stroke-miterlimit="10" stroke-linecap="round" stroke-linejoin="round"/>
</svg>
